# xmcd
#
# Track frame offsets:
#	150
#	17225
#	40175
#	62270
#	74376
#	90705
#	112790
#	132715
#	150888
#	164851
#	180405
#	206995
#	224054
#	240816
#	260704
#	277600
#
# Disc length: 4032 seconds
#
# Revision: 0
# Processed by: cddbd v1.5.1PL2 Copyright (c) Steve Scherf et al.
# Submitted via: dBpowerAMP V4.0
#
DISCID=df0fbe10
DTITLE=Jon Chandler - Sepia Soul
DYEAR=1900
DGENRE=Country
TTITLE0=Colorado Sikies
TTITLE1=Red Trail
TTITLE2=He Was No Hero
TTITLE3=Thorns
TTITLE4=Through the Gap
TTITLE5=Be On My Way
TTITLE6=Heartwell
TTITLE7=The Spanish Peaks (Reprise)
TTITLE8=America's Soul
TTITLE9=Nancy's Eyes
TTITLE10=I'm Going Home
TTITLE11=Out West of Laramie
TTITLE12=My Last Stand
TTITLE13=Little Wilbur and Miss Lorraine
TTITLE14=Niobrara (Running Water)
TTITLE15=Distant Rain
EXTD=Jon Chandler - Sepia Soul
EXTT0=
EXTT1=
EXTT2=
EXTT3=
EXTT4=
EXTT5=
EXTT6=
EXTT7=
EXTT8=
EXTT9=
EXTT10=
EXTT11=
EXTT12=
EXTT13=
EXTT14=
EXTT15=
PLAYORDER=
